<mxfile host="app.diagrams.net" modified="2021-01-12T12:42:52.457Z" agent="5.0 (Windows NT 10.0; Win64; x64) AppleWebKit/537.36 (KHTML, like Gecko) Chrome/87.0.4280.141 Safari/537.36" etag="s4GVjYL_QNgdp0ds8u4i" version="14.1.9" type="github">
  <diagram id="prtHgNgQTEPvFCAcTncT" name="Page-1">
    <mxGraphModel dx="2228" dy="727" grid="1" gridSize="10" guides="1" tooltips="1" connect="1" arrows="1" fold="1" page="1" pageScale="1" pageWidth="827" pageHeight="1169" math="0" shadow="0">
      <root>
        <mxCell id="0" />
        <mxCell id="1" parent="0" />
        <mxCell id="dNxyNK7c78bLwvsdeMH5-11" value="&lt;a class=&quot;&quot; href=&quot;https://github.com/said11707/Conception-de-la-premi-re-version-du-site-one-bleach.uni-&quot; style=&quot;box-sizing: border-box ; background-color: rgb(250 , 251 , 252) ; outline-width: 0px ; font-family: , &amp;#34;blinkmacsystemfont&amp;#34; , &amp;#34;segoe ui&amp;#34; , &amp;#34;helvetica&amp;#34; , &amp;#34;arial&amp;#34; , sans-serif , &amp;#34;apple color emoji&amp;#34; , &amp;#34;segoe ui emoji&amp;#34; ; font-size: 20px&quot;&gt;Conception de la premire version du site one bleachuni&lt;/a&gt;" style="swimlane;html=1;startSize=20;horizontal=1;containerType=tree;glass=0;" parent="1" vertex="1">
          <mxGeometry x="-10" y="80" width="1340" height="1120" as="geometry" />
        </mxCell>
        <mxCell id="yD72ybEfyagu7YJNDBlK-2" value="chercher un produits" style="ellipse;whiteSpace=wrap;html=1;" vertex="1" parent="dNxyNK7c78bLwvsdeMH5-11">
          <mxGeometry x="180" y="80" width="160" height="60" as="geometry" />
        </mxCell>
        <mxCell id="yD72ybEfyagu7YJNDBlK-3" value="Créer panier" style="ellipse;whiteSpace=wrap;html=1;" vertex="1" parent="dNxyNK7c78bLwvsdeMH5-11">
          <mxGeometry x="180" y="170" width="160" height="60" as="geometry" />
        </mxCell>
        <mxCell id="yD72ybEfyagu7YJNDBlK-18" style="edgeStyle=orthogonalEdgeStyle;rounded=0;orthogonalLoop=1;jettySize=auto;html=1;" edge="1" parent="dNxyNK7c78bLwvsdeMH5-11" source="yD72ybEfyagu7YJNDBlK-7" target="yD72ybEfyagu7YJNDBlK-3">
          <mxGeometry relative="1" as="geometry" />
        </mxCell>
        <mxCell id="yD72ybEfyagu7YJNDBlK-20" style="edgeStyle=orthogonalEdgeStyle;rounded=0;orthogonalLoop=1;jettySize=auto;html=1;entryX=0;entryY=0.5;entryDx=0;entryDy=0;dashed=1;" edge="1" parent="dNxyNK7c78bLwvsdeMH5-11" source="yD72ybEfyagu7YJNDBlK-7" target="yD72ybEfyagu7YJNDBlK-13">
          <mxGeometry relative="1" as="geometry" />
        </mxCell>
        <mxCell id="yD72ybEfyagu7YJNDBlK-7" value="ajouter produits" style="ellipse;whiteSpace=wrap;html=1;" vertex="1" parent="dNxyNK7c78bLwvsdeMH5-11">
          <mxGeometry x="180" y="260" width="160" height="60" as="geometry" />
        </mxCell>
        <mxCell id="yD72ybEfyagu7YJNDBlK-27" style="edgeStyle=orthogonalEdgeStyle;rounded=0;orthogonalLoop=1;jettySize=auto;html=1;entryX=0.5;entryY=1;entryDx=0;entryDy=0;dashed=1;" edge="1" parent="dNxyNK7c78bLwvsdeMH5-11" source="yD72ybEfyagu7YJNDBlK-8" target="yD72ybEfyagu7YJNDBlK-7">
          <mxGeometry relative="1" as="geometry" />
        </mxCell>
        <mxCell id="yD72ybEfyagu7YJNDBlK-8" value="Créer compte" style="ellipse;whiteSpace=wrap;html=1;" vertex="1" parent="dNxyNK7c78bLwvsdeMH5-11">
          <mxGeometry x="180" y="370" width="160" height="60" as="geometry" />
        </mxCell>
        <mxCell id="yD72ybEfyagu7YJNDBlK-13" value="Authentifier" style="ellipse;whiteSpace=wrap;html=1;" vertex="1" parent="dNxyNK7c78bLwvsdeMH5-11">
          <mxGeometry x="440" y="310" width="160" height="60" as="geometry" />
        </mxCell>
        <mxCell id="yD72ybEfyagu7YJNDBlK-19" value="&amp;lt;&amp;lt;exetend &amp;gt;&amp;gt;" style="text;html=1;align=center;verticalAlign=middle;resizable=0;points=[];autosize=1;" vertex="1" parent="dNxyNK7c78bLwvsdeMH5-11">
          <mxGeometry x="160" y="240" width="90" height="20" as="geometry" />
        </mxCell>
        <mxCell id="yD72ybEfyagu7YJNDBlK-22" value="&amp;lt;&amp;lt;include&amp;gt;&amp;gt;" style="text;html=1;align=center;verticalAlign=middle;resizable=0;points=[];autosize=1;" vertex="1" parent="dNxyNK7c78bLwvsdeMH5-11">
          <mxGeometry x="315" y="310" width="80" height="20" as="geometry" />
        </mxCell>
        <mxCell id="yD72ybEfyagu7YJNDBlK-26" value="&amp;lt;&amp;lt;include&amp;gt;&amp;gt;" style="text;html=1;align=center;verticalAlign=middle;resizable=0;points=[];autosize=1;" vertex="1" parent="dNxyNK7c78bLwvsdeMH5-11">
          <mxGeometry x="315" y="360" width="80" height="20" as="geometry" />
        </mxCell>
        <mxCell id="yD72ybEfyagu7YJNDBlK-28" value="&amp;lt;&amp;lt;include &amp;gt;&amp;gt;" style="text;html=1;align=center;verticalAlign=middle;resizable=0;points=[];autosize=1;" vertex="1" parent="dNxyNK7c78bLwvsdeMH5-11">
          <mxGeometry x="165" y="340" width="80" height="20" as="geometry" />
        </mxCell>
        <mxCell id="yD72ybEfyagu7YJNDBlK-30" style="edgeStyle=orthogonalEdgeStyle;rounded=0;orthogonalLoop=1;jettySize=auto;html=1;dashed=1;" edge="1" parent="dNxyNK7c78bLwvsdeMH5-11" source="yD72ybEfyagu7YJNDBlK-29">
          <mxGeometry relative="1" as="geometry">
            <mxPoint x="340" y="280" as="targetPoint" />
            <Array as="points">
              <mxPoint x="360" y="200" />
              <mxPoint x="360" y="280" />
            </Array>
          </mxGeometry>
        </mxCell>
        <mxCell id="yD72ybEfyagu7YJNDBlK-29" value="valider produit" style="ellipse;whiteSpace=wrap;html=1;" vertex="1" parent="dNxyNK7c78bLwvsdeMH5-11">
          <mxGeometry x="424" y="170" width="160" height="60" as="geometry" />
        </mxCell>
        <mxCell id="yD72ybEfyagu7YJNDBlK-31" value="&amp;lt;&amp;lt;include &amp;gt;&amp;gt;" style="text;html=1;align=center;verticalAlign=middle;resizable=0;points=[];autosize=1;" vertex="1" parent="dNxyNK7c78bLwvsdeMH5-11">
          <mxGeometry x="370" y="230" width="80" height="20" as="geometry" />
        </mxCell>
        <mxCell id="yD72ybEfyagu7YJNDBlK-33" style="edgeStyle=orthogonalEdgeStyle;rounded=0;orthogonalLoop=1;jettySize=auto;html=1;entryX=1;entryY=0.5;entryDx=0;entryDy=0;dashed=1;" edge="1" parent="dNxyNK7c78bLwvsdeMH5-11" source="yD72ybEfyagu7YJNDBlK-32" target="yD72ybEfyagu7YJNDBlK-29">
          <mxGeometry relative="1" as="geometry" />
        </mxCell>
        <mxCell id="yD72ybEfyagu7YJNDBlK-32" value="mode de payment" style="ellipse;whiteSpace=wrap;html=1;" vertex="1" parent="dNxyNK7c78bLwvsdeMH5-11">
          <mxGeometry x="710" y="210" width="160" height="60" as="geometry" />
        </mxCell>
        <mxCell id="yD72ybEfyagu7YJNDBlK-34" value="&amp;lt;&amp;lt;include &amp;gt;&amp;gt;" style="text;html=1;align=center;verticalAlign=middle;resizable=0;points=[];autosize=1;" vertex="1" parent="dNxyNK7c78bLwvsdeMH5-11">
          <mxGeometry x="650" y="210" width="80" height="20" as="geometry" />
        </mxCell>
        <mxCell id="yD72ybEfyagu7YJNDBlK-38" style="edgeStyle=orthogonalEdgeStyle;rounded=0;orthogonalLoop=1;jettySize=auto;html=1;entryX=1.029;entryY=0.678;entryDx=0;entryDy=0;entryPerimeter=0;" edge="1" parent="dNxyNK7c78bLwvsdeMH5-11" source="yD72ybEfyagu7YJNDBlK-35" target="yD72ybEfyagu7YJNDBlK-32">
          <mxGeometry relative="1" as="geometry" />
        </mxCell>
        <mxCell id="yD72ybEfyagu7YJNDBlK-35" value="l&#39;invraision" style="ellipse;whiteSpace=wrap;html=1;" vertex="1" parent="dNxyNK7c78bLwvsdeMH5-11">
          <mxGeometry x="960" y="270" width="160" height="60" as="geometry" />
        </mxCell>
        <mxCell id="yD72ybEfyagu7YJNDBlK-37" style="edgeStyle=orthogonalEdgeStyle;rounded=0;orthogonalLoop=1;jettySize=auto;html=1;entryX=1;entryY=0.5;entryDx=0;entryDy=0;" edge="1" parent="dNxyNK7c78bLwvsdeMH5-11" source="yD72ybEfyagu7YJNDBlK-36" target="yD72ybEfyagu7YJNDBlK-32">
          <mxGeometry relative="1" as="geometry" />
        </mxCell>
        <mxCell id="yD72ybEfyagu7YJNDBlK-36" value="carde de bancaire" style="ellipse;whiteSpace=wrap;html=1;" vertex="1" parent="dNxyNK7c78bLwvsdeMH5-11">
          <mxGeometry x="960" y="140" width="160" height="60" as="geometry" />
        </mxCell>
        <mxCell id="yD72ybEfyagu7YJNDBlK-43" value="Gérer les produits" style="ellipse;whiteSpace=wrap;html=1;" vertex="1" parent="dNxyNK7c78bLwvsdeMH5-11">
          <mxGeometry x="180" y="480" width="160" height="60" as="geometry" />
        </mxCell>
        <mxCell id="yD72ybEfyagu7YJNDBlK-44" value="Activer des notifications" style="ellipse;whiteSpace=wrap;html=1;" vertex="1" parent="dNxyNK7c78bLwvsdeMH5-11">
          <mxGeometry x="180" y="600" width="160" height="60" as="geometry" />
        </mxCell>
        <mxCell id="yD72ybEfyagu7YJNDBlK-48" value="Visualiser les états de ventes de son rayon" style="ellipse;whiteSpace=wrap;html=1;" vertex="1" parent="dNxyNK7c78bLwvsdeMH5-11">
          <mxGeometry x="180" y="690" width="210" height="60" as="geometry" />
        </mxCell>
        <mxCell id="yD72ybEfyagu7YJNDBlK-75" value="Activer des notifications&lt;br&gt;de produits n’ayant pas atteint l’objectif de vent" style="ellipse;whiteSpace=wrap;html=1;" vertex="1" parent="dNxyNK7c78bLwvsdeMH5-11">
          <mxGeometry x="180" y="800" width="160" height="60" as="geometry" />
        </mxCell>
        <mxCell id="yD72ybEfyagu7YJNDBlK-80" style="edgeStyle=orthogonalEdgeStyle;rounded=0;orthogonalLoop=1;jettySize=auto;html=1;entryX=1;entryY=0.5;entryDx=0;entryDy=0;" edge="1" parent="dNxyNK7c78bLwvsdeMH5-11" source="yD72ybEfyagu7YJNDBlK-78" target="yD72ybEfyagu7YJNDBlK-48">
          <mxGeometry relative="1" as="geometry" />
        </mxCell>
        <mxCell id="yD72ybEfyagu7YJNDBlK-78" value="imprime" style="ellipse;whiteSpace=wrap;html=1;" vertex="1" parent="dNxyNK7c78bLwvsdeMH5-11">
          <mxGeometry x="530" y="610" width="160" height="60" as="geometry" />
        </mxCell>
        <mxCell id="yD72ybEfyagu7YJNDBlK-79" value="format électroniques" style="ellipse;whiteSpace=wrap;html=1;" vertex="1" parent="dNxyNK7c78bLwvsdeMH5-11">
          <mxGeometry x="530" y="720" width="160" height="60" as="geometry" />
        </mxCell>
        <mxCell id="yD72ybEfyagu7YJNDBlK-83" value="Visualiser les états de vente afférents aux différents rayons" style="ellipse;whiteSpace=wrap;html=1;" vertex="1" parent="dNxyNK7c78bLwvsdeMH5-11">
          <mxGeometry x="940" y="450" width="180" height="60" as="geometry" />
        </mxCell>
        <mxCell id="yD72ybEfyagu7YJNDBlK-115" value="activer des notifications&lt;br&gt;&amp;nbsp; n&#39;ayant pas atteint l&#39;objectif de vente mensuel" style="ellipse;whiteSpace=wrap;html=1;" vertex="1" parent="dNxyNK7c78bLwvsdeMH5-11">
          <mxGeometry x="920" y="600" width="200" height="60" as="geometry" />
        </mxCell>
        <mxCell id="yD72ybEfyagu7YJNDBlK-119" value="&lt;span style=&quot;font-family: &amp;#34;nunito sans&amp;#34; , sans-serif ; font-size: 16px ; background-color: rgb(255 , 255 , 255)&quot;&gt;Gérer les comptes&amp;nbsp;&lt;/span&gt;" style="ellipse;whiteSpace=wrap;html=1;" vertex="1" parent="dNxyNK7c78bLwvsdeMH5-11">
          <mxGeometry x="950" y="800" width="160" height="60" as="geometry" />
        </mxCell>
        <mxCell id="yD72ybEfyagu7YJNDBlK-9" style="edgeStyle=orthogonalEdgeStyle;rounded=0;orthogonalLoop=1;jettySize=auto;html=1;entryX=0;entryY=0.5;entryDx=0;entryDy=0;" edge="1" parent="1" source="yD72ybEfyagu7YJNDBlK-1" target="yD72ybEfyagu7YJNDBlK-2">
          <mxGeometry relative="1" as="geometry" />
        </mxCell>
        <mxCell id="yD72ybEfyagu7YJNDBlK-10" style="edgeStyle=orthogonalEdgeStyle;rounded=0;orthogonalLoop=1;jettySize=auto;html=1;entryX=0;entryY=0.5;entryDx=0;entryDy=0;" edge="1" parent="1" source="yD72ybEfyagu7YJNDBlK-1" target="yD72ybEfyagu7YJNDBlK-3">
          <mxGeometry relative="1" as="geometry" />
        </mxCell>
        <mxCell id="yD72ybEfyagu7YJNDBlK-11" style="edgeStyle=orthogonalEdgeStyle;rounded=0;orthogonalLoop=1;jettySize=auto;html=1;entryX=0;entryY=0.5;entryDx=0;entryDy=0;" edge="1" parent="1" source="yD72ybEfyagu7YJNDBlK-1" target="yD72ybEfyagu7YJNDBlK-7">
          <mxGeometry relative="1" as="geometry" />
        </mxCell>
        <mxCell id="yD72ybEfyagu7YJNDBlK-12" style="edgeStyle=orthogonalEdgeStyle;rounded=0;orthogonalLoop=1;jettySize=auto;html=1;entryX=0;entryY=0.5;entryDx=0;entryDy=0;" edge="1" parent="1" source="yD72ybEfyagu7YJNDBlK-1" target="yD72ybEfyagu7YJNDBlK-8">
          <mxGeometry relative="1" as="geometry" />
        </mxCell>
        <mxCell id="yD72ybEfyagu7YJNDBlK-1" value="Client" style="shape=umlActor;verticalLabelPosition=bottom;verticalAlign=top;html=1;outlineConnect=0;" vertex="1" parent="1">
          <mxGeometry x="-100" y="300" width="30" height="60" as="geometry" />
        </mxCell>
        <mxCell id="yD72ybEfyagu7YJNDBlK-21" style="edgeStyle=orthogonalEdgeStyle;rounded=0;orthogonalLoop=1;jettySize=auto;html=1;dashed=1;" edge="1" parent="1" source="yD72ybEfyagu7YJNDBlK-8">
          <mxGeometry relative="1" as="geometry">
            <mxPoint x="430" y="420" as="targetPoint" />
            <Array as="points">
              <mxPoint x="380" y="480" />
              <mxPoint x="380" y="420" />
            </Array>
          </mxGeometry>
        </mxCell>
        <mxCell id="yD72ybEfyagu7YJNDBlK-39" value="&amp;lt;&amp;lt;extand&amp;gt;&amp;gt;" style="text;html=1;align=center;verticalAlign=middle;resizable=0;points=[];autosize=1;" vertex="1" parent="1">
          <mxGeometry x="820" y="260" width="80" height="20" as="geometry" />
        </mxCell>
        <mxCell id="yD72ybEfyagu7YJNDBlK-41" style="edgeStyle=orthogonalEdgeStyle;rounded=0;orthogonalLoop=1;jettySize=auto;html=1;entryX=1;entryY=0.5;entryDx=0;entryDy=0;" edge="1" parent="1" source="yD72ybEfyagu7YJNDBlK-40" target="yD72ybEfyagu7YJNDBlK-36">
          <mxGeometry relative="1" as="geometry" />
        </mxCell>
        <mxCell id="yD72ybEfyagu7YJNDBlK-40" value="Système bancaire" style="whiteSpace=wrap;html=1;" vertex="1" parent="1">
          <mxGeometry x="1370" y="220" width="120" height="60" as="geometry" />
        </mxCell>
        <mxCell id="yD72ybEfyagu7YJNDBlK-45" style="edgeStyle=orthogonalEdgeStyle;rounded=0;orthogonalLoop=1;jettySize=auto;html=1;entryX=0;entryY=0.5;entryDx=0;entryDy=0;" edge="1" parent="1" source="yD72ybEfyagu7YJNDBlK-42" target="yD72ybEfyagu7YJNDBlK-43">
          <mxGeometry relative="1" as="geometry" />
        </mxCell>
        <mxCell id="yD72ybEfyagu7YJNDBlK-46" style="edgeStyle=orthogonalEdgeStyle;rounded=0;orthogonalLoop=1;jettySize=auto;html=1;entryX=0;entryY=0.5;entryDx=0;entryDy=0;" edge="1" parent="1" source="yD72ybEfyagu7YJNDBlK-42" target="yD72ybEfyagu7YJNDBlK-44">
          <mxGeometry relative="1" as="geometry" />
        </mxCell>
        <mxCell id="yD72ybEfyagu7YJNDBlK-42" value="l’agent de vente" style="shape=umlActor;verticalLabelPosition=bottom;verticalAlign=top;html=1;outlineConnect=0;" vertex="1" parent="1">
          <mxGeometry x="-100" y="590" width="30" height="60" as="geometry" />
        </mxCell>
        <mxCell id="yD72ybEfyagu7YJNDBlK-76" style="edgeStyle=orthogonalEdgeStyle;rounded=0;orthogonalLoop=1;jettySize=auto;html=1;entryX=0;entryY=0.5;entryDx=0;entryDy=0;" edge="1" parent="1" source="yD72ybEfyagu7YJNDBlK-47" target="yD72ybEfyagu7YJNDBlK-48">
          <mxGeometry relative="1" as="geometry" />
        </mxCell>
        <mxCell id="yD72ybEfyagu7YJNDBlK-77" style="edgeStyle=orthogonalEdgeStyle;rounded=0;orthogonalLoop=1;jettySize=auto;html=1;entryX=0.004;entryY=0.622;entryDx=0;entryDy=0;entryPerimeter=0;" edge="1" parent="1" source="yD72ybEfyagu7YJNDBlK-47" target="yD72ybEfyagu7YJNDBlK-75">
          <mxGeometry relative="1" as="geometry" />
        </mxCell>
        <mxCell id="yD72ybEfyagu7YJNDBlK-47" value="responsable de rayon" style="shape=umlActor;verticalLabelPosition=bottom;verticalAlign=top;html=1;outlineConnect=0;" vertex="1" parent="1">
          <mxGeometry x="-100" y="810" width="30" height="60" as="geometry" />
        </mxCell>
        <mxCell id="yD72ybEfyagu7YJNDBlK-81" style="edgeStyle=orthogonalEdgeStyle;rounded=0;orthogonalLoop=1;jettySize=auto;html=1;" edge="1" parent="1" source="yD72ybEfyagu7YJNDBlK-79">
          <mxGeometry relative="1" as="geometry">
            <mxPoint x="390" y="800" as="targetPoint" />
          </mxGeometry>
        </mxCell>
        <mxCell id="yD72ybEfyagu7YJNDBlK-116" style="edgeStyle=orthogonalEdgeStyle;rounded=0;orthogonalLoop=1;jettySize=auto;html=1;entryX=1;entryY=0.5;entryDx=0;entryDy=0;" edge="1" parent="1" source="yD72ybEfyagu7YJNDBlK-82" target="yD72ybEfyagu7YJNDBlK-83">
          <mxGeometry relative="1" as="geometry" />
        </mxCell>
        <mxCell id="yD72ybEfyagu7YJNDBlK-117" style="edgeStyle=orthogonalEdgeStyle;rounded=0;orthogonalLoop=1;jettySize=auto;html=1;entryX=1;entryY=0.5;entryDx=0;entryDy=0;" edge="1" parent="1" source="yD72ybEfyagu7YJNDBlK-82" target="yD72ybEfyagu7YJNDBlK-115">
          <mxGeometry relative="1" as="geometry" />
        </mxCell>
        <mxCell id="yD72ybEfyagu7YJNDBlK-82" value="Directeur de la plateforme" style="shape=umlActor;verticalLabelPosition=bottom;verticalAlign=top;html=1;outlineConnect=0;" vertex="1" parent="1">
          <mxGeometry x="1415" y="555" width="30" height="60" as="geometry" />
        </mxCell>
        <mxCell id="yD72ybEfyagu7YJNDBlK-120" style="edgeStyle=orthogonalEdgeStyle;rounded=0;orthogonalLoop=1;jettySize=auto;html=1;entryX=1;entryY=0.5;entryDx=0;entryDy=0;" edge="1" parent="1" source="yD72ybEfyagu7YJNDBlK-118" target="yD72ybEfyagu7YJNDBlK-119">
          <mxGeometry relative="1" as="geometry" />
        </mxCell>
        <mxCell id="yD72ybEfyagu7YJNDBlK-118" value="l’administrateur" style="shape=umlActor;verticalLabelPosition=bottom;verticalAlign=top;html=1;outlineConnect=0;" vertex="1" parent="1">
          <mxGeometry x="1415" y="840" width="30" height="60" as="geometry" />
        </mxCell>
      </root>
    </mxGraphModel>
  </diagram>
</mxfile>
